<svg xmlns="http://www.w3.org/2000/svg" width="1440" height="900"><path d="M710,411L693,314L588,322Z" fill="#f97fa8" stroke="#f97fa8" stroke-width="1.51"/><path d="M588,322L576,412L710,411Z" fill="#f97fa8" stroke="#f97fa8" stroke-width="1.51"/><path d="M576,412L599,571L710,411Z" fill="#f771a4" stroke="#f771a4" stroke-width="1.51"/><path d="M588,322L419,431L576,412Z" fill="#fa88ac" stroke="#fa88ac" stroke-width="1.51"/><path d="M576,412L419,431L599,571Z" fill="#f77ba8" stroke="#f77ba8" stroke-width="1.51"/><path d="M710,411L910,298L693,314Z" fill="#f676a6" stroke="#f676a6" stroke-width="1.51"/><path d="M744,632L879,471L710,411Z" fill="#f05b9f" stroke="#f05b9f" stroke-width="1.51"/><path d="M693,314L557,125L588,322Z" fill="#fa93af" stroke="#fa93af" stroke-width="1.51"/><path d="M588,322L378,286L419,431Z" fill="#fa95b1" stroke="#fa95b1" stroke-width="1.51"/><path d="M764,117L557,125L693,314Z" fill="#fa95b0" stroke="#fa95b0" stroke-width="1.51"/><path d="M879,471L910,298L710,411Z" fill="#f268a2" stroke="#f268a2" stroke-width="1.51"/><path d="M599,571L744,632L710,411Z" fill="#f161a0" stroke="#f161a0" stroke-width="1.51"/><path d="M417,142L378,286L588,322Z" fill="#faa2b6" stroke="#faa2b6" stroke-width="1.51"/><path d="M846,159L764,117L693,314Z" fill="#f88aac" stroke="#f88aac" stroke-width="1.51"/><path d="M910,298L846,159L693,314Z" fill="#f47fa9" stroke="#f47fa9" stroke-width="1.51"/><path d="M557,125L417,142L588,322Z" fill="#fba2b6" stroke="#fba2b6" stroke-width="1.51"/><path d="M744,632L855,638L879,471Z" fill="#e84c9c" stroke="#e84c9c" stroke-width="1.51"/><path d="M879,471L1008,441L910,298Z" fill="#ed5da0" stroke="#ed5da0" stroke-width="1.51"/><path d="M419,431L374,628L599,571Z" fill="#f27aa9" stroke="#f27aa9" stroke-width="1.51"/><path d="M599,571L705,765L744,632Z" fill="#e7529c" stroke="#e7529c" stroke-width="1.51"/><path d="M378,286L285,452L419,431Z" fill="#fb96b1" stroke="#fb96b1" stroke-width="1.51"/><path d="M236,296L285,452L378,286Z" fill="#fba1b5" stroke="#fba1b5" stroke-width="1.51"/><path d="M1002,579L1008,441L879,471Z" fill="#e74b9b" stroke="#e74b9b" stroke-width="1.51"/><path d="M910,298L1025,112L846,159Z" fill="#f07eaa" stroke="#f07eaa" stroke-width="1.51"/><path d="M285,452L374,628L419,431Z" fill="#f687ac" stroke="#f687ac" stroke-width="1.51"/><path d="M744,632L705,765L855,638Z" fill="#e14697" stroke="#e14697" stroke-width="1.51"/><path d="M1008,441L1012,299L910,298Z" fill="#eb63a2" stroke="#eb63a2" stroke-width="1.51"/><path d="M557,125L542,-10L417,142Z" fill="#fcafba" stroke="#fcafba" stroke-width="1.51"/><path d="M693,-40L542,-10L557,125Z" fill="#fcabbb" stroke="#fcabbb" stroke-width="1.51"/><path d="M693,-40L557,125L764,117Z" fill="#fca1b5" stroke="#fca1b5" stroke-width="1.51"/><path d="M548,779L705,765L599,571Z" fill="#e0579b" stroke="#e0579b" stroke-width="1.51"/><path d="M908,765L1002,579L855,638Z" fill="#da3696" stroke="#da3696" stroke-width="1.51"/><path d="M855,638L1002,579L879,471Z" fill="#e5469a" stroke="#e5469a" stroke-width="1.51"/><path d="M854,-24L693,-40L764,117Z" fill="#fa9cb6" stroke="#fa9cb6" stroke-width="1.51"/><path d="M854,-24L764,117L846,159Z" fill="#f792b0" stroke="#f792b0" stroke-width="1.51"/><path d="M292,128L236,296L378,286Z" fill="#fcb0ba" stroke="#fcb0ba" stroke-width="1.51"/><path d="M292,128L378,286L417,142Z" fill="#fbb1bb" stroke="#fbb1bb" stroke-width="1.51"/><path d="M398,737L548,779L599,571Z" fill="#e3649f" stroke="#e3649f" stroke-width="1.51"/><path d="M377,-23L292,128L417,142Z" fill="#fcbcbe" stroke="#fcbcbe" stroke-width="1.51"/><path d="M374,628L398,737L599,571Z" fill="#ea6fa5" stroke="#ea6fa5" stroke-width="1.51"/><path d="M247,746L398,737L374,628Z" fill="#e373a4" stroke="#e373a4" stroke-width="1.51"/><path d="M1025,112L854,-24L846,159Z" fill="#f28caf" stroke="#f28caf" stroke-width="1.51"/><path d="M1012,299L1025,112L910,298Z" fill="#ec74a7" stroke="#ec74a7" stroke-width="1.51"/><path d="M1185,164L1025,112L1012,299Z" fill="#e474a4" stroke="#e474a4" stroke-width="1.51"/><path d="M1180,270L1012,299L1008,441Z" fill="#e3609e" stroke="#e3609e" stroke-width="1.51"/><path d="M285,452L224,572L374,628Z" fill="#f487ac" stroke="#f487ac" stroke-width="1.51"/><path d="M120,413L224,572L285,452Z" fill="#f996af" stroke="#f996af" stroke-width="1.51"/><path d="M705,765L908,765L855,638Z" fill="#d83c93" stroke="#d83c93" stroke-width="1.51"/><path d="M763,940L908,765L705,765Z" fill="#cb388d" stroke="#cb388d" stroke-width="1.51"/><path d="M385,-205L377,-23L542,-10Z" fill="#fcc2c9" stroke="#fcc2c9" stroke-width="1.51"/><path d="M542,-10L377,-23L417,142Z" fill="#fcb9c0" stroke="#fcb9c0" stroke-width="1.51"/><path d="M62,296L236,296L63,127Z" fill="#fcbbc1" stroke="#fcbbc1" stroke-width="1.51"/><path d="M62,296L120,413L236,296Z" fill="#fcaebb" stroke="#fcaebb" stroke-width="1.51"/><path d="M236,296L120,413L285,452Z" fill="#fca2b4" stroke="#fca2b4" stroke-width="1.51"/><path d="M548,779L580,895L705,765Z" fill="#d24f94" stroke="#d24f94" stroke-width="1.51"/><path d="M439,948L580,895L548,779Z" fill="#c95796" stroke="#c95796" stroke-width="1.51"/><path d="M1203,461L1180,270L1008,441Z" fill="#dc5298" stroke="#dc5298" stroke-width="1.51"/><path d="M1203,461L1008,441L1002,579Z" fill="#de4396" stroke="#de4396" stroke-width="1.51"/><path d="M398,737L439,948L548,779Z" fill="#d26099" stroke="#d26099" stroke-width="1.51"/><path d="M224,572L247,746L374,628Z" fill="#ec7da9" stroke="#ec7da9" stroke-width="1.51"/><path d="M63,618L247,746L224,572Z" fill="#ed85ac" stroke="#ed85ac" stroke-width="1.51"/><path d="M377,-23L246,-1L292,128Z" fill="#fdc3c3" stroke="#fdc3c3" stroke-width="1.51"/><path d="M1207,625L1203,461L1002,579Z" fill="#d33591" stroke="#d33591" stroke-width="1.51"/><path d="M693,-40L591,-214L542,-10Z" fill="#fdb3c4" stroke="#fdb3c4" stroke-width="1.51"/><path d="M377,-23L278,-172L246,-1Z" fill="#fdcbcb" stroke="#fdcbcb" stroke-width="1.51"/><path d="M854,-24L756,-191L693,-40Z" fill="#fba4be" stroke="#fba4be" stroke-width="1.51"/><path d="M845,-173L756,-191L854,-24Z" fill="#f9a3c0" stroke="#f9a3c0" stroke-width="1.51"/><path d="M845,-173L854,-24L1071,-29Z" fill="#f397bb" stroke="#f397bb" stroke-width="1.51"/><path d="M1180,270L1185,164L1012,299Z" fill="#df6aa0" stroke="#df6aa0" stroke-width="1.51"/><path d="M1308,133L1185,164L1180,270Z" fill="#d66b9c" stroke="#d66b9c" stroke-width="1.51"/><path d="M908,765L1062,801L1002,579Z" fill="#cf288f" stroke="#cf288f" stroke-width="1.51"/><path d="M580,895L763,940L705,765Z" fill="#c94390" stroke="#c94390" stroke-width="1.51"/><path d="M1071,-29L854,-24L1025,112Z" fill="#ef8ab1" stroke="#ef8ab1" stroke-width="1.51"/><path d="M1185,164L1071,-29L1025,112Z" fill="#e47fa7" stroke="#e47fa7" stroke-width="1.51"/><path d="M63,127L236,296L292,128Z" fill="#fcbdbf" stroke="#fcbdbf" stroke-width="1.51"/><path d="M120,413L63,618L224,572Z" fill="#f694b2" stroke="#f694b2" stroke-width="1.51"/><path d="M756,-191L591,-214L693,-40Z" fill="#feb0c4" stroke="#feb0c4" stroke-width="1.51"/><path d="M1067,902L1062,801L908,765Z" fill="#be1c88" stroke="#be1c88" stroke-width="1.51"/><path d="M597,1091L764,1067L763,940Z" fill="#b03a8b" stroke="#b03a8b" stroke-width="1.51"/><path d="M293,952L439,948L398,737Z" fill="#ca659a" stroke="#ca659a" stroke-width="1.51"/><path d="M1162,736L1207,625L1002,579Z" fill="#cc268e" stroke="#cc268e" stroke-width="1.51"/><path d="M763,940L883,943L908,765Z" fill="#c02f8c" stroke="#c02f8c" stroke-width="1.51"/><path d="M868,1068L883,943L763,940Z" fill="#b12e89" stroke="#b12e89" stroke-width="1.51"/><path d="M112,0L63,127L292,128Z" fill="#fcc9c4" stroke="#fcc9c4" stroke-width="1.51"/><path d="M-90,434L63,618L120,413Z" fill="#fa9fba" stroke="#fa9fba" stroke-width="1.51"/><path d="M247,746L293,952L398,737Z" fill="#d56d9d" stroke="#d56d9d" stroke-width="1.51"/><path d="M1062,801L1162,736L1002,579Z" fill="#c8238d" stroke="#c8238d" stroke-width="1.51"/><path d="M1200,932L1162,736L1062,801Z" fill="#b20e81" stroke="#b20e81" stroke-width="1.51"/><path d="M246,-1L112,0L292,128Z" fill="#fdcac4" stroke="#fdcac4" stroke-width="1.51"/><path d="M591,-214L385,-205L542,-10Z" fill="#fec1cb" stroke="#fec1cb" stroke-width="1.51"/><path d="M113,-155L112,0L246,-1Z" fill="#fdd3cf" stroke="#fdd3cf" stroke-width="1.51"/><path d="M385,-205L278,-172L377,-23Z" fill="#fdcdcf" stroke="#fdcdcf" stroke-width="1.51"/><path d="M1203,461L1307,415L1180,270Z" fill="#d34e93" stroke="#d34e93" stroke-width="1.51"/><path d="M1366,584L1307,415L1203,461Z" fill="#c9398e" stroke="#c9398e" stroke-width="1.51"/><path d="M1366,584L1203,461L1207,625Z" fill="#c72e8c" stroke="#c72e8c" stroke-width="1.51"/><path d="M62,296L-22,302L120,413Z" fill="#fcb2c0" stroke="#fcb2c0" stroke-width="1.51"/><path d="M-62,152L-22,302L62,296Z" fill="#fcc1c8" stroke="#fcc1c8" stroke-width="1.51"/><path d="M-62,152L62,296L63,127Z" fill="#fcc6c8" stroke="#fcc6c8" stroke-width="1.51"/><path d="M1185,164L1187,-33L1071,-29Z" fill="#df7fa8" stroke="#df7fa8" stroke-width="1.51"/><path d="M1071,-29L1071,-213L845,-173Z" fill="#f096bc" stroke="#f096bc" stroke-width="1.51"/><path d="M1308,133L1187,-33L1185,164Z" fill="#d776a0" stroke="#d776a0" stroke-width="1.51"/><path d="M883,943L1067,902L908,765Z" fill="#bc2289" stroke="#bc2289" stroke-width="1.51"/><path d="M100,883L293,952L247,746Z" fill="#ce739e" stroke="#ce739e" stroke-width="1.51"/><path d="M439,948L444,1042L580,895Z" fill="#bc5896" stroke="#bc5896" stroke-width="1.51"/><path d="M293,952L444,1042L439,948Z" fill="#ba5f98" stroke="#ba5f98" stroke-width="1.51"/><path d="M883,943L1031,1077L1067,902Z" fill="#aa1b86" stroke="#aa1b86" stroke-width="1.51"/><path d="M597,1091L763,940L580,895Z" fill="#b8448f" stroke="#b8448f" stroke-width="1.51"/><path d="M1350,298L1308,133L1180,270Z" fill="#d0649b" stroke="#d0649b" stroke-width="1.51"/><path d="M1307,415L1350,298L1180,270Z" fill="#cf5696" stroke="#cf5696" stroke-width="1.51"/><path d="M-48,783L64,791L63,618Z" fill="#e386ae" stroke="#e386ae" stroke-width="1.51"/><path d="M63,618L64,791L247,746Z" fill="#e382aa" stroke="#e382aa" stroke-width="1.51"/><path d="M444,1042L597,1091L580,895Z" fill="#b54f92" stroke="#b54f92" stroke-width="1.51"/><path d="M756,-191L1071,-213L591,-214Z" fill="#fba9c5" stroke="#fba9c5" stroke-width="1.51"/><path d="M845,-173L1071,-213L756,-191Z" fill="#f7a1c2" stroke="#f7a1c2" stroke-width="1.51"/><path d="M1189,-198L1071,-213L1071,-29Z" fill="#e58fb7" stroke="#e58fb7" stroke-width="1.51"/><path d="M1189,-198L1071,-29L1187,-33Z" fill="#e089b1" stroke="#e089b1" stroke-width="1.51"/><path d="M764,1067L868,1068L763,940Z" fill="#ad3189" stroke="#ad3189" stroke-width="1.51"/><path d="M597,1091L868,1068L764,1067Z" fill="#a93588" stroke="#a93588" stroke-width="1.51"/><path d="M-22,302L-90,434L120,413Z" fill="#fdafc0" stroke="#fdafc0" stroke-width="1.51"/><path d="M-219,333L-90,434L-22,302Z" fill="#feb8c7" stroke="#feb8c7" stroke-width="1.51"/><path d="M-76,-51L-62,152L63,127Z" fill="#fdd4cf" stroke="#fdd4cf" stroke-width="1.51"/><path d="M-76,-51L63,127L112,0Z" fill="#fdd4d0" stroke="#fdd4d0" stroke-width="1.51"/><path d="M64,791L100,883L247,746Z" fill="#d779a3" stroke="#d779a3" stroke-width="1.51"/><path d="M293,952L263,1032L444,1042Z" fill="#b66298" stroke="#b66298" stroke-width="1.51"/><path d="M-48,783L100,883L64,791Z" fill="#d67fa8" stroke="#d67fa8" stroke-width="1.51"/><path d="M278,-172L113,-155L246,-1Z" fill="#fdd5d0" stroke="#fdd5d0" stroke-width="1.51"/><path d="M-35,-213L113,-155L278,-172Z" fill="#fededa" stroke="#fededa" stroke-width="1.51"/><path d="M1316,756L1366,584L1207,625Z" fill="#ba1b87" stroke="#ba1b87" stroke-width="1.51"/><path d="M1307,415L1460,479L1350,298Z" fill="#c44791" stroke="#c44791" stroke-width="1.51"/><path d="M1316,756L1207,625L1162,736Z" fill="#ba1584" stroke="#ba1584" stroke-width="1.51"/><path d="M100,883L263,1032L293,952Z" fill="#bf6e9c" stroke="#bf6e9c" stroke-width="1.51"/><path d="M444,1042L137,1083L597,1091Z" fill="#ad5b94" stroke="#ad5b94" stroke-width="1.51"/><path d="M-90,434L-74,629L63,618Z" fill="#f69abb" stroke="#f69abb" stroke-width="1.51"/><path d="M1200,932L1062,801L1067,902Z" fill="#ad1082" stroke="#ad1082" stroke-width="1.51"/><path d="M1200,932L1316,756L1162,736Z" fill="#ad017e" stroke="#ad017e" stroke-width="1.51"/><path d="M1308,133L1308,-42L1187,-33Z" fill="#d47aa5" stroke="#d47aa5" stroke-width="1.51"/><path d="M1472,-8L1308,-42L1308,133Z" fill="#c977a3" stroke="#c977a3" stroke-width="1.51"/><path d="M1197,1035L1200,932L1067,902Z" fill="#9d0a7f" stroke="#9d0a7f" stroke-width="1.51"/><path d="M1308,-42L1189,-198L1187,-33Z" fill="#d985ae" stroke="#d985ae" stroke-width="1.51"/><path d="M868,1068L1031,1077L883,943Z" fill="#a62186" stroke="#a62186" stroke-width="1.51"/><path d="M597,1091L1031,1077L868,1068Z" fill="#a42b86" stroke="#a42b86" stroke-width="1.51"/><path d="M100,883L137,1083L263,1032Z" fill="#b96f9d" stroke="#b96f9d" stroke-width="1.51"/><path d="M-74,629L-48,783L63,618Z" fill="#ea8eb5" stroke="#ea8eb5" stroke-width="1.51"/><path d="M1350,298L1476,138L1308,133Z" fill="#c6669a" stroke="#c6669a" stroke-width="1.51"/><path d="M1366,584L1460,479L1307,415Z" fill="#bf368d" stroke="#bf368d" stroke-width="1.51"/><path d="M1487,636L1460,479L1366,584Z" fill="#b42989" stroke="#b42989" stroke-width="1.51"/><path d="M113,-155L-76,-51L112,0Z" fill="#fddbd7" stroke="#fddbd7" stroke-width="1.51"/><path d="M-228,479L-191,565L-90,434Z" fill="#fca9c3" stroke="#fca9c3" stroke-width="1.51"/><path d="M-74,629L-194,743L-48,783Z" fill="#e58eb6" stroke="#e58eb6" stroke-width="1.51"/><path d="M-90,434L-191,565L-74,629Z" fill="#f8a0bf" stroke="#f8a0bf" stroke-width="1.51"/><path d="M-219,333L-22,302L-62,152Z" fill="#fdc4cc" stroke="#fdc4cc" stroke-width="1.51"/><path d="M1457,744L1487,636L1366,584Z" fill="#ac1985" stroke="#ac1985" stroke-width="1.51"/><path d="M1200,932L1329,900L1316,756Z" fill="#a0017c" stroke="#a0017c" stroke-width="1.51"/><path d="M1031,1077L1197,1035L1067,902Z" fill="#9c0f80" stroke="#9c0f80" stroke-width="1.51"/><path d="M1308,-42L1348,-176L1189,-198Z" fill="#d486b0" stroke="#d486b0" stroke-width="1.51"/><path d="M1532,270L1476,138L1350,298Z" fill="#be5f98" stroke="#be5f98" stroke-width="1.51"/><path d="M1197,1035L1329,900L1200,932Z" fill="#96017b" stroke="#96017b" stroke-width="1.51"/><path d="M-215,143L-219,333L-62,152Z" fill="#feccd0" stroke="#feccd0" stroke-width="1.51"/><path d="M-50,1104L137,1083L100,883Z" fill="#b673a2" stroke="#b673a2" stroke-width="1.51"/><path d="M263,1032L137,1083L444,1042Z" fill="#b16497" stroke="#b16497" stroke-width="1.51"/><path d="M-84,923L100,883L-48,783Z" fill="#cf7faa" stroke="#cf7faa" stroke-width="1.51"/><path d="M-219,333L-228,479L-90,434Z" fill="#feb3c6" stroke="#feb3c6" stroke-width="1.51"/><path d="M1457,744L1366,584L1316,756Z" fill="#ac1483" stroke="#ac1483" stroke-width="1.51"/><path d="M1460,479L1532,270L1350,298Z" fill="#bd4e92" stroke="#bd4e92" stroke-width="1.51"/><path d="M-219,333L-215,143L-228,479Z" fill="#ffc2ce" stroke="#ffc2ce" stroke-width="1.51"/><path d="M-76,-51L-215,143L-62,152Z" fill="#fdd7d3" stroke="#fdd7d3" stroke-width="1.51"/><path d="M1472,-8L1348,-176L1308,-42Z" fill="#c87eab" stroke="#c87eab" stroke-width="1.51"/><path d="M1616,427L1532,270L1460,479Z" fill="#b3448e" stroke="#b3448e" stroke-width="1.51"/><path d="M1476,138L1472,-8L1308,133Z" fill="#c3709e" stroke="#c3709e" stroke-width="1.51"/><path d="M1461,891L1457,744L1316,756Z" fill="#9c027c" stroke="#9c027c" stroke-width="1.51"/><path d="M-76,-51L-217,-39L-215,143Z" fill="#fedfda" stroke="#fedfda" stroke-width="1.51"/><path d="M113,-155L-35,-213L-76,-51Z" fill="#fee2de" stroke="#fee2de" stroke-width="1.51"/><path d="M385,-205L-35,-213L278,-172Z" fill="#fedad6" stroke="#fedad6" stroke-width="1.51"/><path d="M591,-214L-35,-213L385,-205Z" fill="#ffd4d5" stroke="#ffd4d5" stroke-width="1.51"/><path d="M1623,-22L1472,-8L1476,138Z" fill="#b871a0" stroke="#b871a0" stroke-width="1.51"/><path d="M-194,743L-74,629L-191,565Z" fill="#ef96bd" stroke="#ef96bd" stroke-width="1.51"/><path d="M-212,882L-84,923L-48,783Z" fill="#d084af" stroke="#d084af" stroke-width="1.51"/><path d="M-228,479L-194,743L-191,565Z" fill="#f59ec1" stroke="#f59ec1" stroke-width="1.51"/><path d="M-215,143L-217,-39L-228,479Z" fill="#fed1d3" stroke="#fed1d3" stroke-width="1.51"/><path d="M-189,-143L-217,-39L-76,-51Z" fill="#fee5e2" stroke="#fee5e2" stroke-width="1.51"/><path d="M1329,900L1461,891L1316,756Z" fill="#99017b" stroke="#99017b" stroke-width="1.51"/><path d="M1457,744L1645,644L1487,636Z" fill="#a01582" stroke="#a01582" stroke-width="1.51"/><path d="M1487,636L1616,427L1460,479Z" fill="#af3089" stroke="#af3089" stroke-width="1.51"/><path d="M1377,1085L1461,891L1329,900Z" fill="#860179" stroke="#860179" stroke-width="1.51"/><path d="M1532,270L1647,151L1476,138Z" fill="#b46197" stroke="#b46197" stroke-width="1.51"/><path d="M1645,644L1616,427L1487,636Z" fill="#a52586" stroke="#a52586" stroke-width="1.51"/><path d="M-35,-213L-189,-143L-76,-51Z" fill="#fee7e3" stroke="#fee7e3" stroke-width="1.51"/><path d="M1616,427L1626,285L1532,270Z" fill="#af4d90" stroke="#af4d90" stroke-width="1.51"/><path d="M1472,-8L1464,-185L1348,-176Z" fill="#c480ad" stroke="#c480ad" stroke-width="1.51"/><path d="M1348,-176L1464,-185L1189,-198Z" fill="#cf87b2" stroke="#cf87b2" stroke-width="1.51"/><path d="M1189,-198L1464,-185L1071,-213Z" fill="#da8bb4" stroke="#da8bb4" stroke-width="1.51"/><path d="M1623,-22L1464,-185L1472,-8Z" fill="#b979a8" stroke="#b979a8" stroke-width="1.51"/><path d="M-84,923L-50,1104L100,883Z" fill="#be7aa8" stroke="#be7aa8" stroke-width="1.51"/><path d="M-194,743L-212,882L-48,783Z" fill="#da88b2" stroke="#da88b2" stroke-width="1.51"/><path d="M-228,479L-212,882L-194,743Z" fill="#e995bb" stroke="#e995bb" stroke-width="1.51"/><path d="M-242,1075L-50,1104L-84,923Z" fill="#b57cab" stroke="#b57cab" stroke-width="1.51"/><path d="M137,1083L-50,1104L597,1091Z" fill="#ab6797" stroke="#ab6797" stroke-width="1.51"/><path d="M1506,1114L1031,1077L597,1091Z" fill="#94137f" stroke="#94137f" stroke-width="1.51"/><path d="M1506,1114L1377,1085L1031,1077Z" fill="#7c0075" stroke="#7c0075" stroke-width="1.51"/><path d="M1031,1077L1377,1085L1197,1035Z" fill="#8a0278" stroke="#8a0278" stroke-width="1.51"/><path d="M1197,1035L1377,1085L1329,900Z" fill="#890079" stroke="#890079" stroke-width="1.51"/><path d="M1626,285L1647,151L1532,270Z" fill="#af5a94" stroke="#af5a94" stroke-width="1.51"/><path d="M1645,644L1647,151L1626,285Z" fill="#aa478d" stroke="#aa478d" stroke-width="1.51"/><path d="M1660,774L1457,744L1461,891Z" fill="#8f007a" stroke="#8f007a" stroke-width="1.51"/><path d="M1660,774L1645,644L1457,744Z" fill="#940d7d" stroke="#940d7d" stroke-width="1.51"/><path d="M1616,427L1645,644L1626,285Z" fill="#aa3688" stroke="#aa3688" stroke-width="1.51"/><path d="M1647,151L1623,-22L1476,138Z" fill="#b26b9a" stroke="#b26b9a" stroke-width="1.51"/><path d="M1690,957L1660,774L1461,891Z" fill="#7d0076" stroke="#7d0076" stroke-width="1.51"/><path d="M1645,644L1660,774L1647,151Z" fill="#a22b86" stroke="#a22b86" stroke-width="1.51"/><path d="M-217,-39L-242,1075L-228,479Z" fill="#fca9c5" stroke="#fca9c5" stroke-width="1.51"/><path d="M-228,479L-242,1075L-212,882Z" fill="#da8cb4" stroke="#da8cb4" stroke-width="1.51"/><path d="M-212,882L-242,1075L-84,923Z" fill="#c182b0" stroke="#c182b0" stroke-width="1.51"/><path d="M1377,1085L1506,1114L1461,891Z" fill="#760076" stroke="#760076" stroke-width="1.51"/><path d="M-50,1104L1506,1114L597,1091Z" fill="#a73b89" stroke="#a73b89" stroke-width="1.51"/><path d="M1623,-22L1675,-154L1464,-185Z" fill="#b37aa9" stroke="#b37aa9" stroke-width="1.51"/><path d="M1647,151L1675,-154L1623,-22Z" fill="#ac70a0" stroke="#ac70a0" stroke-width="1.51"/><path d="M1690,957L1675,-154L1647,151Z" fill="#a74d8f" stroke="#a74d8f" stroke-width="1.51"/><path d="M1660,774L1690,957L1647,151Z" fill="#991982" stroke="#991982" stroke-width="1.51"/><path d="M1625,1071L1690,957L1461,891Z" fill="#700074" stroke="#700074" stroke-width="1.51"/><path d="M1506,1114L1625,1071L1461,891Z" fill="#6e0074" stroke="#6e0074" stroke-width="1.51"/></svg>